<svg xmlns="http://www.w3.org/2000/svg" viewBox="0 0 1000 700" role="img" aria-label="A phone showing the online shop, with a local shop and a delivery rider around it">
<title>A phone showing the online shop, with a local shop and a delivery rider around it</title>
<defs><filter id="sh" x="-20%" y="-20%" width="140%" height="140%"><feDropShadow dx="0" dy="14" stdDeviation="18" flood-color="#17211f" flood-opacity="0.16"/></filter></defs>
<circle cx="500" cy="380" r="300" fill="#e3f1ec"/><path d="M150 120 Q500 200 850 110" fill="none" stroke="#6b5a48" stroke-width="3"/><path d="M194.33333333333331 132.15277777777774 L222.33333333333331 132.15277777777774 L224.57333333333332 167.15277777777774 L196.57333333333332 167.15277777777774 Z" fill="#ffffff" stroke="#d8d2c4" stroke-width="1.5"/><path d="M252.66666666666669 141.94444444444446 L280.6666666666667 141.94444444444446 L278.4266666666667 176.94444444444446 L250.42666666666668 176.94444444444446 Z" fill="#c8462b" stroke="#d8d2c4" stroke-width="1.5"/><path d="M311 149.375 L339 149.375 L341.24 184.375 L313.24 184.375 Z" fill="#2f8f6b" stroke="#d8d2c4" stroke-width="1.5"/><path d="M369.33333333333337 154.44444444444446 L397.33333333333337 154.44444444444446 L395.09333333333336 189.44444444444446 L367.09333333333336 189.44444444444446 Z" fill="#f5c451" stroke="#d8d2c4" stroke-width="1.5"/><path d="M427.66666666666663 157.15277777777777 L455.66666666666663 157.15277777777777 L457.90666666666664 192.15277777777777 L429.90666666666664 192.15277777777777 Z" fill="#1d5fa8" stroke="#d8d2c4" stroke-width="1.5"/><path d="M486 157.5 L514 157.5 L511.76 192.5 L483.76 192.5 Z" fill="#ffffff" stroke="#d8d2c4" stroke-width="1.5"/><path d="M544.3333333333334 155.48611111111111 L572.3333333333334 155.48611111111111 L574.5733333333334 190.48611111111111 L546.5733333333334 190.48611111111111 Z" fill="#c8462b" stroke="#d8d2c4" stroke-width="1.5"/><path d="M602.6666666666667 151.11111111111111 L630.6666666666667 151.11111111111111 L628.4266666666667 186.11111111111111 L600.4266666666667 186.11111111111111 Z" fill="#2f8f6b" stroke="#d8d2c4" stroke-width="1.5"/><path d="M661 144.375 L689 144.375 L691.24 179.375 L663.24 179.375 Z" fill="#f5c451" stroke="#d8d2c4" stroke-width="1.5"/><path d="M719.3333333333334 135.27777777777777 L747.3333333333334 135.27777777777777 L745.0933333333334 170.27777777777777 L717.0933333333334 170.27777777777777 Z" fill="#1d5fa8" stroke="#d8d2c4" stroke-width="1.5"/><path d="M777.6666666666665 123.81944444444444 L805.6666666666665 123.81944444444444 L807.9066666666665 158.81944444444446 L779.9066666666665 158.81944444444446 Z" fill="#ffffff" stroke="#d8d2c4" stroke-width="1.5"/><g filter="url(#sh)"><rect x="380" y="150" width="240" height="480" rx="34" fill="#17211f"/></g>
<rect x="392" y="162" width="216" height="456" rx="24" fill="#ffffff"/>
<rect x="392" y="162" width="216" height="70" rx="24" fill="#0b6b4f"/><rect x="392" y="200" width="216" height="32" fill="#0b6b4f"/>
<rect x="412" y="186" width="110" height="12" rx="6" fill="#ffffff"/><rect x="410" y="252" width="84" height="132" rx="12" fill="#e3f1ec"/><rect x="420" y="262" width="64" height="62" rx="8" fill="#f5c451"/><rect x="420" y="336" width="56" height="10" rx="5" fill="#dfe5e3"/><rect x="420" y="356" width="38" height="10" rx="5" fill="#0b6b4f"/><rect x="508" y="252" width="84" height="132" rx="12" fill="#e3f1ec"/><rect x="518" y="262" width="64" height="62" rx="8" fill="#c8462b"/><rect x="518" y="336" width="56" height="10" rx="5" fill="#dfe5e3"/><rect x="518" y="356" width="38" height="10" rx="5" fill="#0b6b4f"/><rect x="410" y="402" width="84" height="132" rx="12" fill="#e3f1ec"/><rect x="420" y="412" width="64" height="62" rx="8" fill="#1d5fa8"/><rect x="420" y="486" width="56" height="10" rx="5" fill="#dfe5e3"/><rect x="420" y="506" width="38" height="10" rx="5" fill="#0b6b4f"/><rect x="508" y="402" width="84" height="132" rx="12" fill="#e3f1ec"/><rect x="518" y="412" width="64" height="62" rx="8" fill="#2f8f6b"/><rect x="518" y="486" width="56" height="10" rx="5" fill="#dfe5e3"/><rect x="518" y="506" width="38" height="10" rx="5" fill="#0b6b4f"/><rect x="410" y="560" width="180" height="40" rx="20" fill="#0b6b4f"/><rect x="450" y="574" width="100" height="12" rx="6" fill="#ffffff"/><rect x="120" y="400" width="200" height="210" fill="#000" opacity="0.06"/><rect x="110" y="390" width="200" height="210" fill="#fffaf0"/><rect x="110" y="390" width="200" height="63" fill="#7a2f1b"/><rect x="140" y="404" width="60" height="35" fill="#f5c451"/><rect x="147" y="411" width="46" height="21" fill="#fffaf0"/><path d="M170 411 V432 M147 421.5 H193" stroke="#7a2f1b" stroke-width="5"/><rect x="220" y="404" width="60" height="35" fill="#f5c451"/><rect x="227" y="411" width="46" height="21" fill="#fffaf0"/><path d="M250 411 V432 M227 421.5 H273" stroke="#7a2f1b" stroke-width="5"/><rect x="86" y="374" width="14" height="16" fill="#c8462b"/><rect x="102" y="374" width="14" height="16" fill="#f5c451"/><rect x="118" y="374" width="14" height="16" fill="#2f8f6b"/><rect x="134" y="374" width="14" height="16" fill="#1d5fa8"/><rect x="150" y="374" width="14" height="16" fill="#c8462b"/><rect x="166" y="374" width="14" height="16" fill="#f5c451"/><rect x="182" y="374" width="14" height="16" fill="#2f8f6b"/><rect x="198" y="374" width="14" height="16" fill="#1d5fa8"/><rect x="214" y="374" width="14" height="16" fill="#c8462b"/><rect x="230" y="374" width="14" height="16" fill="#f5c451"/><rect x="246" y="374" width="14" height="16" fill="#2f8f6b"/><rect x="262" y="374" width="14" height="16" fill="#1d5fa8"/><rect x="278" y="374" width="14" height="16" fill="#c8462b"/><rect x="294" y="374" width="14" height="16" fill="#f5c451"/><rect x="310" y="374" width="14" height="16" fill="#2f8f6b"/><rect x="326" y="374" width="14" height="16" fill="#1d5fa8"/><path d="M54 374 L366 374 L304 316 L116 316 Z" fill="#c8462b"/><rect x="54" y="368" width="312" height="6" fill="#00000033"/><rect x="140" y="290" width="140" height="26" fill="#fffaf0"/><path d="M114 290 L306 290 L274 256 L146 256 Z" fill="#c8462b"/><path d="M210 224 L222 256 L198 256 Z" fill="#f5c451"/><circle cx="210" cy="222" r="7" fill="#f5c451"/><rect x="140" y="504" width="140" height="96" fill="#fdf3d7"/><circle cx="135.625" cy="504" r="10.625" fill="#0b6b4f"/><rect x="125" y="470" width="21.25" height="34" fill="#0b6b4f"/><circle cx="156.875" cy="504" r="10.625" fill="#ffffff" stroke="#e2d6bd" stroke-width="2"/><rect x="146.25" y="470" width="21.25" height="34" fill="#ffffff" stroke="#e2d6bd" stroke-width="2"/><circle cx="178.125" cy="504" r="10.625" fill="#0b6b4f"/><rect x="167.5" y="470" width="21.25" height="34" fill="#0b6b4f"/><circle cx="199.375" cy="504" r="10.625" fill="#ffffff" stroke="#e2d6bd" stroke-width="2"/><rect x="188.75" y="470" width="21.25" height="34" fill="#ffffff" stroke="#e2d6bd" stroke-width="2"/><circle cx="220.625" cy="504" r="10.625" fill="#0b6b4f"/><rect x="210" y="470" width="21.25" height="34" fill="#0b6b4f"/><circle cx="241.875" cy="504" r="10.625" fill="#ffffff" stroke="#e2d6bd" stroke-width="2"/><rect x="231.25" y="470" width="21.25" height="34" fill="#ffffff" stroke="#e2d6bd" stroke-width="2"/><circle cx="263.125" cy="504" r="10.625" fill="#0b6b4f"/><rect x="252.5" y="470" width="21.25" height="34" fill="#0b6b4f"/><circle cx="284.375" cy="504" r="10.625" fill="#ffffff" stroke="#e2d6bd" stroke-width="2"/><rect x="273.75" y="470" width="21.25" height="34" fill="#ffffff" stroke="#e2d6bd" stroke-width="2"/><rect x="130" y="546" width="160" height="54" fill="#8a4b2a"/><rect x="124" y="540" width="172" height="10" rx="3" fill="#a8643c"/><g transform="translate(810 620) scale(0.85)">
<ellipse cx="0" cy="2" rx="140" ry="12" fill="#000" opacity="0.1"/>
<circle cx="-78" cy="-36" r="36" fill="#17211f"/><circle cx="-78" cy="-36" r="13" fill="#d8dcdb"/>
<circle cx="88" cy="-36" r="36" fill="#17211f"/><circle cx="88" cy="-36" r="13" fill="#d8dcdb"/>
<path d="M48 -50 A40 40 0 0 1 128 -50" fill="none" stroke="#0b6b4f" stroke-width="12" stroke-linecap="round"/>
<path d="M-124 -52 Q-126 -112 -56 -114 L-12 -114 Q0 -114 0 -102 L0 -64 L-40 -64 Q-62 -40 -104 -40 Q-122 -40 -124 -52 Z" fill="#0b6b4f"/>
<rect x="-44" y="-66" width="98" height="18" rx="9" fill="#0b6b4f"/>
<path d="M48 -60 L80 -156 L96 -151 L66 -54 Z" fill="#084f3a"/>
<circle cx="99" cy="-134" r="10" fill="#f5c451"/>
<path d="M74 -160 L110 -168" stroke="#17211f" stroke-width="9" stroke-linecap="round"/>
<rect x="-104" y="-128" width="92" height="17" rx="8" fill="#17211f"/>
<rect x="-160" y="-222" width="112" height="96" rx="10" fill="#e2a012"/>
<rect x="-160" y="-222" width="112" height="18" rx="9" fill="#c98a0c"/>
<path d="M-116 -170 Q-104 -190 -92 -170" fill="none" stroke="#ffffff" stroke-width="5"/><rect x="-124" y="-172" width="40" height="34" rx="5" fill="#ffffff"/>
<path d="M-42 -132 L2 -112 L16 -70" fill="none" stroke="#33475a" stroke-width="24" stroke-linecap="round" stroke-linejoin="round"/>
<ellipse cx="24" cy="-66" rx="18" ry="8" fill="#17211f"/>
<path d="M-48 -136 L-26 -214" stroke="#084f3a" stroke-width="46" stroke-linecap="round"/>
<path d="M-22 -206 L40 -178 L80 -160" fill="none" stroke="#084f3a" stroke-width="17" stroke-linecap="round" stroke-linejoin="round"/>
<circle cx="84" cy="-160" r="9" fill="#c98b5e"/>
<circle cx="-14" cy="-256" r="25" fill="#c98b5e"/>
<path d="M-46 -252 C-48 -296 18 -300 14 -258 L-8 -258 Q-22 -262 -46 -252 Z" fill="#f5c451"/>
<rect x="-2" y="-266" width="22" height="13" rx="6" fill="#17211f" opacity="0.8"/>
</g><path d="M321 560 Q321 542.08 335 542.08 Q349 542.08 349 560" fill="none" stroke="#084f3a" stroke-width="4.9" stroke-linecap="round"/>
<path d="M300 560 H370 L365.8 616 H304.2 Z" fill="#e2a012"/>
<path d="M325.2 576.8 Q335 586.88 344.8 576.8" fill="none" stroke="#ffffff" stroke-width="3.5" stroke-linecap="round"/><path d="M700.0 196.0 L706.3 211.3 L722.8 212.6 L710.3 223.3 L714.1 239.4 L700.0 230.8 L685.9 239.4 L689.7 223.3 L677.2 212.6 L693.7 211.3 Z" fill="#f5c451"/><path d="M760.0 274.0 L764.2 284.2 L775.2 285.1 L766.8 292.2 L769.4 302.9 L760.0 297.2 L750.6 302.9 L753.2 292.2 L744.8 285.1 L755.8 284.2 Z" fill="#e2a012"/><path d="M250.0 232.0 L254.8 243.4 L267.1 244.4 L257.7 252.5 L260.6 264.6 L250.0 258.1 L239.4 264.6 L242.3 252.5 L232.9 244.4 L245.2 243.4 Z" fill="#f5c451"/>
</svg>
