<svg xmlns="http://www.w3.org/2000/svg" viewBox="0 0 1600 1000" role="img" aria-label="A rider on a scooter taking a package up a mountain road to a house">
<title>A rider on a scooter taking a package up a mountain road to a house</title>
<defs><linearGradient id="sky" x1="0" y1="0" x2="0" y2="1"><stop offset="0" stop-color="#d9ece4"/><stop offset="1" stop-color="#fbf4e2"/></linearGradient></defs>
<rect width="1600" height="1000" fill="url(#sky)"/><circle cx="260" cy="200" r="108.5" fill="#fdf3d7" opacity="0.9"/><circle cx="260" cy="200" r="70" fill="#f5c451"/><path d="M0 560 L120 420 L330 260 L520 430 L700 300 L880 470 L1060 230 L1260 430 L1420 320 L1600 440 L1600 560 L1600 760 L0 760 Z" fill="#bcd3d1"/><path d="M120 420 L99.63636363636364 443.41818181818184 L110.83636363636364 439.3454545454546 L120 446.4727272727273 L130.1818181818182 438.3272727272727 L140.36363636363637 444.43636363636364 Z" fill="#ffffff"/><path d="M330 260 L286.3636363636364 310.1818181818182 L310.3636363636364 301.45454545454544 L330 316.72727272727275 L351.8181818181818 299.27272727272725 L373.6363636363636 312.3636363636364 Z" fill="#ffffff"/><path d="M700 300 L662.1818181818182 343.4909090909091 L682.9818181818182 335.92727272727274 L700 349.16363636363633 L718.9090909090909 334.0363636363636 L737.8181818181818 345.3818181818182 Z" fill="#ffffff"/><path d="M1060 230 L1012 285.2 L1038.4 275.6 L1060 292.4 L1084 273.2 L1108 287.6 Z" fill="#ffffff"/><path d="M1420 320 L1385.090909090909 360.1454545454545 L1404.290909090909 353.16363636363633 L1420 365.3818181818182 L1437.4545454545455 351.41818181818184 L1454.909090909091 361.8909090909091 Z" fill="#ffffff"/><path d="M0 600 C260 540 520 580 760 620 C1000 660 1260 560 1600 590 L1600 1000 L0 1000 Z" fill="#8cc4a8"/><path d="M0 760 C300 700 600 760 900 740 C1180 722 1400 680 1600 700 L1600 1000 L0 1000 Z" fill="#6aae8e"/><path d="M-60 1010 C260 930 520 840 820 850 C1060 858 1160 790 1290 712" fill="none" stroke="#e9dcc0" stroke-width="130" stroke-linecap="round"/>
<path d="M-60 1010 C260 930 520 840 820 850 C1060 858 1160 790 1290 712" fill="none" stroke="#ffffff" stroke-width="7" stroke-dasharray="34 30"/><rect x="995" y="659.4" width="10" height="30.599999999999998" fill="#6b4a32"/>
<path d="M1000 520 C1037.4 571 1034 639 1000 666.2 C966 639 962.6 571 1000 520 Z" fill="#084f3a"/><rect x="1055" y="676.6" width="10" height="23.4" fill="#6b4a32"/>
<path d="M1060 570 C1088.6 609 1086 661 1060 681.8 C1034 661 1031.4 609 1060 570 Z" fill="#084f3a"/><rect x="1535" y="665.8" width="10" height="34.199999999999996" fill="#6b4a32"/>
<path d="M1540 510 C1581.8 567 1578 643 1540 673.4 C1502 643 1498.2 567 1540 510 Z" fill="#084f3a"/><rect x="175" y="761.2" width="10" height="28.799999999999997" fill="#6b4a32"/>
<path d="M180 630 C215.2 678 212 742 180 767.6 C148 742 144.8 678 180 630 Z" fill="#084f3a"/><rect x="1200" y="460" width="280" height="250" fill="#000" opacity="0.06"/><rect x="1190" y="450" width="280" height="250" fill="#fffaf0"/><rect x="1190" y="450" width="280" height="75" fill="#7a2f1b"/><rect x="1220" y="464" width="100" height="47" fill="#f5c451"/><rect x="1227" y="471" width="86" height="33" fill="#fffaf0"/><path d="M1270 471 V504 M1227 487.5 H1313" stroke="#7a2f1b" stroke-width="5"/><rect x="1340" y="464" width="100" height="47" fill="#f5c451"/><rect x="1347" y="471" width="86" height="33" fill="#fffaf0"/><path d="M1390 471 V504 M1347 487.5 H1433" stroke="#7a2f1b" stroke-width="5"/><rect x="1166" y="434" width="14" height="16" fill="#c8462b"/><rect x="1182" y="434" width="14" height="16" fill="#f5c451"/><rect x="1198" y="434" width="14" height="16" fill="#2f8f6b"/><rect x="1214" y="434" width="14" height="16" fill="#1d5fa8"/><rect x="1230" y="434" width="14" height="16" fill="#c8462b"/><rect x="1246" y="434" width="14" height="16" fill="#f5c451"/><rect x="1262" y="434" width="14" height="16" fill="#2f8f6b"/><rect x="1278" y="434" width="14" height="16" fill="#1d5fa8"/><rect x="1294" y="434" width="14" height="16" fill="#c8462b"/><rect x="1310" y="434" width="14" height="16" fill="#f5c451"/><rect x="1326" y="434" width="14" height="16" fill="#2f8f6b"/><rect x="1342" y="434" width="14" height="16" fill="#1d5fa8"/><rect x="1358" y="434" width="14" height="16" fill="#c8462b"/><rect x="1374" y="434" width="14" height="16" fill="#f5c451"/><rect x="1390" y="434" width="14" height="16" fill="#2f8f6b"/><rect x="1406" y="434" width="14" height="16" fill="#1d5fa8"/><rect x="1422" y="434" width="14" height="16" fill="#c8462b"/><rect x="1438" y="434" width="14" height="16" fill="#f5c451"/><rect x="1454" y="434" width="14" height="16" fill="#2f8f6b"/><rect x="1470" y="434" width="14" height="16" fill="#1d5fa8"/><rect x="1486" y="434" width="14" height="16" fill="#c8462b"/><path d="M1134 434 L1526 434 L1464 376 L1196 376 Z" fill="#0b6b4f"/><rect x="1134" y="428" width="392" height="6" fill="#00000033"/><rect x="1260" y="350" width="140" height="26" fill="#fffaf0"/><path d="M1234 350 L1426 350 L1394 316 L1266 316 Z" fill="#0b6b4f"/><path d="M1330 284 L1342 316 L1318 316 Z" fill="#f5c451"/><circle cx="1330" cy="282" r="7" fill="#f5c451"/><rect x="1300" y="610" width="60" height="90" fill="#8a4b2a"/><circle cx="1348" cy="658" r="5" fill="#f5c451"/><path d="M1500 300 Q1560 470 1590 640" fill="none" stroke="#6b5a48" stroke-width="3"/><path d="M1501.530612244898 348.5714285714286 L1531.530612244898 348.5714285714286 L1533.9306122448982 386.0714285714286 L1503.9306122448982 386.0714285714286 Z" fill="#ffffff" stroke="#d8d2c4" stroke-width="1.5"/><path d="M1516.8367346938776 397.14285714285717 L1546.8367346938776 397.14285714285717 L1544.4367346938775 434.64285714285717 L1514.4367346938775 434.64285714285717 Z" fill="#c8462b" stroke="#d8d2c4" stroke-width="1.5"/><path d="M1530.9183673469386 445.71428571428567 L1560.9183673469386 445.71428571428567 L1563.3183673469387 483.21428571428567 L1533.3183673469387 483.21428571428567 Z" fill="#2f8f6b" stroke="#d8d2c4" stroke-width="1.5"/><path d="M1543.7755102040817 494.2857142857142 L1573.7755102040817 494.2857142857142 L1571.3755102040816 531.7857142857142 L1541.3755102040816 531.7857142857142 Z" fill="#f5c451" stroke="#d8d2c4" stroke-width="1.5"/><path d="M1555.4081632653063 542.8571428571429 L1585.4081632653063 542.8571428571429 L1587.8081632653063 580.3571428571429 L1557.8081632653063 580.3571428571429 Z" fill="#1d5fa8" stroke="#d8d2c4" stroke-width="1.5"/><path d="M1565.8163265306123 591.4285714285714 L1595.8163265306123 591.4285714285714 L1593.4163265306122 628.9285714285714 L1563.4163265306122 628.9285714285714 Z" fill="#ffffff" stroke="#d8d2c4" stroke-width="1.5"/><rect x="1495" y="292" width="8" height="420" fill="#6b5a48"/><g transform="translate(1330 320) scale(1.1)"><ellipse cx="0" cy="4" rx="22" ry="7" fill="#000" opacity="0.12"/>
<path d="M0 0 C-10 -20 -42 -42 -42 -66 A42 42 0 1 1 42 -66 C42 -42 10 -20 0 0 Z" fill="#c8462b"/><circle cx="0" cy="-66" r="17" fill="#ffffff"/></g><path d="M380 800 H520 M420 840 H540 M360 760 H480" stroke="#ffffff" stroke-width="10" stroke-linecap="round" opacity="0.9"/><g transform="rotate(-6 760 860)"><g transform="translate(760 872) scale(1.15)">
<ellipse cx="0" cy="2" rx="140" ry="12" fill="#000" opacity="0.1"/>
<circle cx="-78" cy="-36" r="36" fill="#17211f"/><circle cx="-78" cy="-36" r="13" fill="#d8dcdb"/>
<circle cx="88" cy="-36" r="36" fill="#17211f"/><circle cx="88" cy="-36" r="13" fill="#d8dcdb"/>
<path d="M48 -50 A40 40 0 0 1 128 -50" fill="none" stroke="#0b6b4f" stroke-width="12" stroke-linecap="round"/>
<path d="M-124 -52 Q-126 -112 -56 -114 L-12 -114 Q0 -114 0 -102 L0 -64 L-40 -64 Q-62 -40 -104 -40 Q-122 -40 -124 -52 Z" fill="#0b6b4f"/>
<rect x="-44" y="-66" width="98" height="18" rx="9" fill="#0b6b4f"/>
<path d="M48 -60 L80 -156 L96 -151 L66 -54 Z" fill="#084f3a"/>
<circle cx="99" cy="-134" r="10" fill="#f5c451"/>
<path d="M74 -160 L110 -168" stroke="#17211f" stroke-width="9" stroke-linecap="round"/>
<rect x="-104" y="-128" width="92" height="17" rx="8" fill="#17211f"/>
<rect x="-160" y="-222" width="112" height="96" rx="10" fill="#e2a012"/>
<rect x="-160" y="-222" width="112" height="18" rx="9" fill="#c98a0c"/>
<path d="M-116 -170 Q-104 -190 -92 -170" fill="none" stroke="#ffffff" stroke-width="5"/><rect x="-124" y="-172" width="40" height="34" rx="5" fill="#ffffff"/>
<path d="M-42 -132 L2 -112 L16 -70" fill="none" stroke="#33475a" stroke-width="24" stroke-linecap="round" stroke-linejoin="round"/>
<ellipse cx="24" cy="-66" rx="18" ry="8" fill="#17211f"/>
<path d="M-48 -136 L-26 -214" stroke="#084f3a" stroke-width="46" stroke-linecap="round"/>
<path d="M-22 -206 L40 -178 L80 -160" fill="none" stroke="#084f3a" stroke-width="17" stroke-linecap="round" stroke-linejoin="round"/>
<circle cx="84" cy="-160" r="9" fill="#c98b5e"/>
<circle cx="-14" cy="-256" r="25" fill="#c98b5e"/>
<path d="M-46 -252 C-48 -296 18 -300 14 -258 L-8 -258 Q-22 -262 -46 -252 Z" fill="#f5c451"/>
<rect x="-2" y="-266" width="22" height="13" rx="6" fill="#17211f" opacity="0.8"/>
</g></g>
</svg>
